<svg width="16" height="16" viewBox="0 0 16 16" fill="none" xmlns="http://www.w3.org/2000/svg">
<path d="M13.9638 5.86933V7.34266C13.9638 7.47527 13.9111 7.60245 13.8173 7.69621C13.7236 7.78998 13.5964 7.84266 13.4638 7.84266C13.3312 7.84266 13.204 7.78998 13.1102 7.69621C13.0165 7.60245 12.9638 7.47527 12.9638 7.34266V5.86933C12.968 5.69642 12.9386 5.52433 12.8771 5.36266L8.01044 8.28266V13.7427C8.08704 13.7199 8.16084 13.6886 8.23044 13.6493L9.91711 12.716C10.0316 12.6556 10.1651 12.6421 10.2895 12.6781C10.4138 12.7142 10.5193 12.7971 10.5838 12.9093C10.6436 13.0247 10.6561 13.1587 10.6188 13.2832C10.5815 13.4076 10.4972 13.5126 10.3838 13.576L8.70378 14.5093C8.33502 14.7154 7.91953 14.8233 7.49711 14.8227C7.07281 14.8215 6.6556 14.7137 6.28378 14.5093L2.31711 12.3093C1.9311 12.0904 1.60957 11.7736 1.38487 11.3909C1.16017 11.0082 1.04022 10.5731 1.03711 10.1293V5.86933C1.03711 5.42333 1.15711 4.98599 1.38378 4.60266C1.422 4.53377 1.46644 4.46933 1.51711 4.40933L1.59711 4.30933C1.79134 4.0548 2.03657 3.84363 2.31711 3.68933L6.31711 1.48266C6.68782 1.28252 7.10249 1.17773 7.52378 1.17773C7.94506 1.17773 8.35973 1.28252 8.73044 1.48266L12.7304 3.68933C13.0104 3.84333 13.2564 4.05466 13.4504 4.30933C13.4807 4.33999 13.5073 4.37333 13.5304 4.40933C13.5811 4.46933 13.6256 4.53377 13.6638 4.60266C13.8771 4.98933 13.9811 5.42733 13.9638 5.86933Z" fill="#0375F3"/>
<path d="M15.4231 12H11.5769C11.4239 12 11.2772 11.9473 11.1689 11.8536C11.0607 11.7598 11 11.6326 11 11.5C11 11.3674 11.0607 11.2402 11.1689 11.1465C11.2772 11.0527 11.4239 11 11.5769 11H15.4231C15.5761 11 15.7228 11.0527 15.831 11.1465C15.9392 11.2402 16 11.3674 16 11.5C16 11.6326 15.9392 11.7598 15.831 11.8536C15.7228 11.9473 15.5761 12 15.4231 12Z" fill="#1FC583"/>
<path d="M14 9.57693V13.4231C14 13.5761 13.9473 13.7228 13.8536 13.8311C13.7598 13.9393 13.6326 14 13.5 14C13.3674 14 13.2402 13.9393 13.1465 13.8311C13.0527 13.7228 13 13.5761 13 13.4231V9.57693C13 9.42393 13.0527 9.27716 13.1465 9.16904C13.2402 9.06081 13.3674 9 13.5 9C13.6326 9 13.7598 9.06081 13.8536 9.16904C13.9473 9.27716 14 9.42393 14 9.57693Z" fill="#1FC583"/>
</svg>
