<svg
      width="16"
      height="16"
      viewBox="0 0 16 16"
      fill="none"
      xmlns="http://www.w3.org/2000/svg"
    >
      <path
        d="M3 3.5V12.5C3 12.6326 2.94732 12.7598 2.85355 12.8536C2.75979 12.9473 2.63261 13 2.5 13C2.36739 13 2.24021 12.9473 2.14645 12.8536C2.05268 12.7598 2 12.6326 2 12.5V3.5C2 3.36739 2.05268 3.24021 2.14645 3.14645C2.24021 3.05268 2.36739 3 2.5 3C2.63261 3 2.75979 3.05268 2.85355 3.14645C2.94732 3.24021 3 3.36739 3 3.5ZM8.25 6.90625L7 7.3125V6C7 5.86739 6.94732 5.74021 6.85355 5.64645C6.75979 5.55268 6.63261 5.5 6.5 5.5C6.36739 5.5 6.24021 5.55268 6.14645 5.64645C6.05268 5.74021 6 5.86739 6 6V7.3125L4.75 6.90625C4.68809 6.88493 4.62251 6.87631 4.5572 6.88089C4.49188 6.88547 4.42815 6.90316 4.36982 6.93291C4.31149 6.96266 4.25974 7.00386 4.21768 7.05404C4.17562 7.10422 4.1441 7.16237 4.125 7.225C4.10361 7.28734 4.09491 7.35332 4.09942 7.41908C4.10393 7.48483 4.12156 7.54901 4.15126 7.60784C4.18097 7.66667 4.22215 7.71896 4.27239 7.76162C4.32262 7.80429 4.38089 7.83646 4.44375 7.85625L5.69375 8.2625L4.91875 9.325C4.88 9.37829 4.85217 9.43871 4.83685 9.50278C4.82153 9.56686 4.81903 9.63334 4.82948 9.69839C4.83993 9.76344 4.86314 9.82578 4.89777 9.88183C4.9324 9.93788 4.97776 9.98654 5.03125 10.025C5.13942 10.1016 5.27334 10.1328 5.40423 10.1117C5.53512 10.0907 5.65254 10.0192 5.73125 9.9125L6.5 8.85L7.26875 9.9125C7.34746 10.0192 7.46488 10.0907 7.59577 10.1117C7.72666 10.1328 7.86058 10.1016 7.96875 10.025C8.02224 9.98654 8.0676 9.93788 8.10223 9.88183C8.13686 9.82578 8.16007 9.76344 8.17052 9.69839C8.18097 9.63334 8.17847 9.56686 8.16315 9.50278C8.14783 9.43871 8.12 9.37829 8.08125 9.325L7.30625 8.2625L8.55625 7.85625C8.61911 7.83646 8.67738 7.80429 8.72761 7.76162C8.77785 7.71896 8.81903 7.66667 8.84874 7.60784C8.87844 7.54901 8.89607 7.48483 8.90058 7.41908C8.90509 7.35332 8.89639 7.28734 8.875 7.225C8.8559 7.16237 8.82438 7.10422 8.78232 7.05404C8.74026 7.00386 8.68851 6.96266 8.63018 6.93291C8.57185 6.90316 8.50812 6.88547 8.44281 6.88089C8.37749 6.87631 8.31191 6.88493 8.25 6.90625ZM14.875 7.225C14.8559 7.16237 14.8244 7.10422 14.7823 7.05404C14.7403 7.00386 14.6885 6.96266 14.6302 6.93291C14.5719 6.90316 14.5081 6.88547 14.4428 6.88089C14.3775 6.87631 14.3119 6.88493 14.25 6.90625L13 7.3125V6C13 5.86739 12.9473 5.74021 12.8536 5.64645C12.7598 5.55268 12.6326 5.5 12.5 5.5C12.3674 5.5 12.2402 5.55268 12.1464 5.64645C12.0527 5.74021 12 5.86739 12 6V7.3125L10.75 6.90625C10.6881 6.88493 10.6225 6.87631 10.5572 6.88089C10.4919 6.88547 10.4281 6.90316 10.3698 6.93291C10.3115 6.96266 10.2597 7.00386 10.2177 7.05404C10.1756 7.10422 10.1441 7.16237 10.125 7.225C10.1036 7.28734 10.0949 7.35332 10.0994 7.41908C10.1039 7.48483 10.1216 7.54901 10.1513 7.60784C10.181 7.66667 10.2222 7.71896 10.2724 7.76162C10.3226 7.80429 10.3809 7.83646 10.4438 7.85625L11.6938 8.2625L10.9187 9.325C10.88 9.37829 10.8522 9.43871 10.8369 9.50278C10.8215 9.56686 10.819 9.63334 10.8295 9.69839C10.8399 9.76344 10.8631 9.82578 10.8978 9.88183C10.9324 9.93788 10.9778 9.98654 11.0312 10.025C11.1394 10.1016 11.2733 10.1328 11.4042 10.1117C11.5351 10.0907 11.6525 10.0192 11.7312 9.9125L12.5 8.85L13.2688 9.9125C13.3475 10.0192 13.4649 10.0907 13.5958 10.1117C13.7267 10.1328 13.8606 10.1016 13.9688 10.025C14.0222 9.98654 14.0676 9.93788 14.1022 9.88183C14.1369 9.82578 14.1601 9.76344 14.1705 9.69839C14.181 9.63334 14.1785 9.56686 14.1631 9.50278C14.1478 9.43871 14.12 9.37829 14.0813 9.325L13.3062 8.2625L14.5562 7.85625C14.6191 7.83646 14.6774 7.80429 14.7276 7.76162C14.7778 7.71896 14.819 7.66667 14.8487 7.60784C14.8784 7.54901 14.8961 7.48483 14.9006 7.41908C14.9051 7.35332 14.8964 7.28734 14.875 7.225Z"
        fill="currentColor"
      />
    </svg>