<svg viewBox="0 0 20 20" fill="none" xmlns="http://www.w3.org/2000/svg">
<path fill-rule="evenodd" clip-rule="evenodd" d="M6.875 3.75C6.875 3.75 8.81663 3.75 10.1896 5.12294C10.1896 5.12294 11.5625 6.49587 11.5625 8.4375C11.5625 8.4375 11.5625 10.3791 10.1896 11.7521C10.1896 11.7521 8.81663 13.125 6.875 13.125C6.875 13.125 4.93337 13.125 3.56044 11.7521C3.56044 11.7521 2.1875 10.3791 2.1875 8.4375C2.1875 8.4375 2.1875 6.49587 3.56044 5.12294C3.56044 5.12294 4.93337 3.75 6.875 3.75ZM6.875 5C6.875 5 5.45114 5 4.44432 6.00682C4.44432 6.00682 3.4375 7.01364 3.4375 8.4375C3.4375 8.4375 3.4375 9.86136 4.44432 10.8682C4.44432 10.8682 5.45114 11.875 6.875 11.875C6.875 11.875 8.29886 11.875 9.30568 10.8682C9.30568 10.8682 10.3125 9.86136 10.3125 8.4375C10.3125 8.4375 10.3125 7.01364 9.30568 6.00682C9.30568 6.00682 8.29886 5 6.875 5Z" fill="currentColor"/>
<path d="M15.6729 10.8682C14.666 11.875 13.2422 11.875 13.2422 11.875C12.897 11.875 12.6172 12.1548 12.6172 12.5C12.6172 12.8452 12.897 13.125 13.2422 13.125C15.1838 13.125 16.5567 11.7521 16.5567 11.7521C17.9297 10.3791 17.9297 8.4375 17.9297 8.4375C17.9297 6.49587 16.5567 5.12294 16.5567 5.12294C15.1838 3.75 13.2422 3.75 13.2422 3.75C12.5976 3.75196 11.9774 3.92013 11.9774 3.92013C11.7051 3.99399 11.5156 4.24127 11.5156 4.52344L11.5157 4.52986C11.5162 4.58296 11.5235 4.63578 11.5374 4.68704C11.6113 4.95937 11.8584 5.14844 12.1406 5.14844L12.147 5.1484C12.2001 5.14786 12.253 5.14055 12.3042 5.12665C12.7657 5.0015 13.2422 5 13.2422 5C14.666 5 15.6729 6.00682 15.6729 6.00682C16.6797 7.01364 16.6797 8.4375 16.6797 8.4375C16.6797 9.86136 15.6729 10.8682 15.6729 10.8682Z" fill="currentColor"/>
<path d="M9.75625 13.8284C11.1109 14.5322 11.9886 15.7812 11.9886 15.7812C12.1057 15.9477 12.2965 16.0468 12.5 16.0468C12.507 16.0468 12.514 16.0467 12.521 16.0465C12.6424 16.0424 12.76 16.0031 12.8594 15.9332C12.995 15.8379 13.0872 15.6926 13.1157 15.5293C13.1219 15.4938 13.125 15.4579 13.125 15.4218L13.1249 15.4083C13.1222 15.2844 13.0827 15.164 13.0114 15.0625C11.9581 13.5637 10.3325 12.7192 10.3325 12.7192C8.70688 11.8747 6.875 11.875 6.875 11.875C5.04312 11.875 3.41751 12.7192 3.41751 12.7192C1.79198 13.5636 0.738748 15.0623 0.738748 15.0623C0.664795 15.1676 0.625 15.2932 0.625 15.4218C0.625 15.4363 0.625502 15.4508 0.626504 15.4652C0.639557 15.653 0.736596 15.825 0.89065 15.9332C0.995887 16.0072 1.12138 16.0468 1.25 16.0468L1.25187 16.0468C1.28728 16.0467 1.32261 16.0436 1.35749 16.0375C1.52078 16.009 1.66606 15.9168 1.76136 15.7812C2.63908 14.5322 3.99375 13.8284 3.99375 13.8284C5.34843 13.1247 6.875 13.125 6.875 13.125C8.40157 13.125 9.75625 13.8284 9.75625 13.8284Z" fill="currentColor"/>
<path d="M18.3553 15.7805C18.4723 15.9472 18.6635 16.0469 18.8672 16.0469C18.8741 16.0469 18.8809 16.0468 18.8878 16.0465C19.0092 16.0425 19.1268 16.0032 19.2263 15.9334C19.393 15.8164 19.4922 15.6255 19.4922 15.4219C19.4922 15.415 19.4921 15.4081 19.4918 15.4013C19.4878 15.2798 19.4485 15.1622 19.3787 15.0628C19.3783 15.0622 19.3779 15.0616 19.3779 15.0616C18.3254 13.5628 16.7001 12.7185 16.7001 12.7185C15.0743 11.874 13.2422 11.875 13.2422 11.875C13.0764 11.8751 12.9171 11.941 12.8 12.0583C12.6829 12.1755 12.6172 12.3344 12.6172 12.5C12.6172 12.8452 12.897 13.125 13.2422 13.125C14.7688 13.1241 16.1239 13.8278 16.1239 13.8278C17.4783 14.5313 18.3553 15.7805 18.3553 15.7805Z" fill="currentColor"/>
</svg>
